name Walk5.mot
datacolumns 19
datarows 12
range 1.89800000 1.90900000
endheader

                time	   L_ground_force_vx	   L_ground_force_vy	   L_ground_force_vz	   L_ground_force_px	   L_ground_force_py	   L_ground_force_pz	   R_ground_force_vx	   R_ground_force_vy	   R_ground_force_vz	   R_ground_force_px	   R_ground_force_py	   R_ground_force_pz	   L_ground_torque_x	   L_ground_torque_y	   L_ground_torque_z	   R_ground_torque_x	   R_ground_torque_y	   R_ground_torque_z	
          1.89800000	          0.05066048	          0.18183689	         -0.00805194	         -0.00032654	          0.00000000	         -0.00006495	        -25.11550327	        474.23856421	        -24.62682254	          0.23764416	          0.00000000	          0.05261477	          0.00000000	         -0.00011447	          0.00000000	          0.00000000	          1.58521197	          0.00000000	
          1.89900000	          0.04828076	          0.17398094	         -0.00773950	         -0.00033504	          0.00000000	         -0.00006705	        -24.81017371	        473.26210718	        -24.38652010	          0.23819245	          0.00000000	          0.05253330	          0.00000000	         -0.00008210	          0.00000000	          0.00000000	          1.59214013	          0.00000000	
          1.90000000	          0.04592093	          0.16613551	         -0.00742438	         -0.00034155	          0.00000000	         -0.00006872	        -24.50641598	        472.31620419	        -24.14885670	          0.23874201	          0.00000000	          0.05245157	          0.00000000	         -0.00005217	          0.00000000	          0.00000000	          1.59894538	          0.00000000	
          1.90100000	          0.04358822	          0.15832933	         -0.00710799	         -0.00034622	          0.00000000	         -0.00006999	        -24.20434902	        471.40124469	        -23.91396385	          0.23929280	          0.00000000	          0.05236963	          0.00000000	         -0.00002459	          0.00000000	          0.00000000	          1.60562085	          0.00000000	
          1.90200000	          0.04128914	          0.15058858	         -0.00679164	         -0.00034918	          0.00000000	         -0.00007089	        -23.90409626	        470.51759360	        -23.68196567	          0.23984479	          0.00000000	          0.05228751	          0.00000000	          0.00000074	          0.00000000	          0.00000000	          1.61215962	          0.00000000	
          1.90300000	          0.03902951	          0.14293694	         -0.00647653	         -0.00035057	          0.00000000	         -0.00007144	        -23.60578437	        469.66558817	        -23.45297931	          0.24039793	          0.00000000	          0.05220525	          0.00000000	          0.00002391	          0.00000000	          0.00000000	          1.61855466	          0.00000000	
          1.90400000	          0.03681453	          0.13539575	         -0.00616374	         -0.00035052	          0.00000000	         -0.00007168	        -23.30954263	        468.84553553	        -23.22711566	          0.24095216	          0.00000000	          0.05212289	          0.00000000	          0.00004502	          0.00000000	          0.00000000	          1.62479862	          0.00000000	
          1.90500000	          0.03464875	          0.12798412	         -0.00585425	         -0.00034914	          0.00000000	         -0.00007162	        -23.01550272	        468.05771052	        -23.00447992	          0.24150743	          0.00000000	          0.05204045	          0.00000000	          0.00006417	          0.00000000	          0.00000000	          1.63088362	          0.00000000	
          1.90600000	          0.03253619	          0.12071903	         -0.00554895	         -0.00034657	          0.00000000	         -0.00007130	        -22.72379866	        467.30235351	        -22.78517229	          0.24206367	          0.00000000	          0.05195796	          0.00000000	          0.00008144	          0.00000000	          0.00000000	          1.63680119	          0.00000000	
          1.90700000	          0.03048030	          0.11361548	         -0.00524864	         -0.00034290	          0.00000000	         -0.00007074	        -22.43456666	        466.57966770	        -22.56928852	          0.24262080	          0.00000000	          0.05187545	          0.00000000	          0.00009694	          0.00000000	          0.00000000	          1.64254236	          0.00000000	
          1.90800000	          0.02848404	          0.10668658	         -0.00495403	         -0.00033825	          0.00000000	         -0.00006996	        -22.14794446	        465.88981611	        -22.35692048	          0.24317875	          0.00000000	          0.05179295	          0.00000000	          0.00011076	          0.00000000	          0.00000000	          1.64809803	          0.00000000	
          1.90900000	          0.02654987	          0.09994365	         -0.00466575	         -0.00033272	          0.00000000	         -0.00006898	        -21.86407043	        465.23291866	        -22.14815661	          0.24373742	          0.00000000	          0.05171047	          0.00000000	          0.00012298	          0.00000000	          0.00000000	          1.65345947	          0.00000000	
